<?xml version="1.0" standalone="no"?>
<!DOCTYPE svg PUBLIC "-//W3C//DTD SVG 20010904//EN"
 "http://www.w3.org/TR/2001/REC-SVG-20010904/DTD/svg10.dtd">
<svg version="1.0" xmlns="http://www.w3.org/2000/svg"
 width="500.000000pt" height="500.000000pt" viewBox="0 0 500.000000 500.000000"
 preserveAspectRatio="xMidYMid meet">

<g transform="translate(0.000000,500.000000) scale(0.100000,-0.100000)"
fill="#000000" stroke="none">
<path d="M2508 3953 c-26 -4 -26 -6 -33 -101 -3 -53 -7 -108 -8 -122 -2 -24
-4 -25 -102 -30 l-100 -5 0 -30 0 -30 75 0 75 -1 3 -658 c1 -481 -1 -657 -9
-654 -10 3 -97 140 -470 733 -193 308 -315 501 -362 573 l-47 72 -229 0 -229
0 -4 -30 c-3 -17 -1 -33 4 -36 4 -3 36 -5 71 -4 34 1 68 1 75 1 9 -1 12 -192
12 -921 l0 -919 -82 -3 -83 -3 -3 -32 -3 -33 226 0 226 0 -3 33 -3 32 -78 1
c-43 1 -80 4 -82 6 -10 10 -10 1708 0 1708 12 0 2 16 331 -535 147 -247 340
-571 429 -720 88 -148 195 -327 235 -397 62 -103 80 -127 102 -132 l27 -5 3
-123 3 -123 40 0 40 0 5 1248 c4 1104 3 1247 -10 1246 -8 -1 -27 -4 -42 -6z"/>
<path d="M2575 2710 c0 -553 1 -779 2 -502 2 276 2 728 0 1005 -1 276 -2 50
-2 -503z"/>
</g>
</svg>
