<?xml version="1.0" standalone="no"?>
<!DOCTYPE svg PUBLIC "-//W3C//DTD SVG 20010904//EN"
 "http://www.w3.org/TR/2001/REC-SVG-20010904/DTD/svg10.dtd">
<svg version="1.0" xmlns="http://www.w3.org/2000/svg"
 width="500.000000pt" height="500.000000pt" viewBox="0 0 500.000000 500.000000"
 preserveAspectRatio="xMidYMid meet">

<g transform="translate(0.000000,500.000000) scale(0.100000,-0.100000)"
fill="#000000" stroke="none">
<path d="M2544 2705 c0 -687 2 -1193 3 -1122 l4 127 144 0 145 0 0 25 c0 25
-1 25 -80 25 l-80 0 0 435 0 435 328 0 c258 0 340 3 385 15 192 50 347 206
392 396 64 271 -89 545 -355 635 -72 24 -74 24 -476 24 l-403 0 -4 128 c-1 70
-3 -435 -3 -1123z m529 930 c271 -57 454 -309 403 -554 -8 -39 -28 -95 -43
-124 -37 -69 -134 -165 -208 -204 -107 -56 -153 -65 -357 -70 l-188 -5 0 486
0 486 163 0 c102 0 187 -6 230 -15z"/>
</g>
</svg>
